<svg
            xmlns="http://www.w3.org/2000/svg"
            viewBox="15 15 350 350"
          >
            <path fill="none" d="M-1-1h582v402H-1z" />
            <g>
              <path
                d="M119.538753 402.851c.717 0 1.434-.275 1.984-.822l50.721-50.715c1.093-1.084 1.093-2.878 0-3.962l-46.721-46.718 48.767-48.769c1.086-1.084 1.086-2.867 0-3.961l-46.537-46.523 49.002-49.002c1.092-1.095 1.092-2.871 0-3.962l-46.715-46.72 48.767-48.766c1.091-1.092 1.091-2.871 0-3.962l-48.15-48.148c-1.092-1.095-2.871-1.095-3.961 0-1.092 1.09-1.092 2.867 0 3.961l46.167 46.165-48.739 48.736c-1.09 1.094-1.09 2.87 0 3.961.08.08.175.107.257.17.096.134.153.285.271.402l46.166 46.172-48.737 48.736c-.696.695-.898 1.653-.715 2.545-.016.738.25 1.482.808 2.041l46.167 46.183-48.739 48.723c-1.085 1.096-1.085 2.879 0 3.963.08.087.17.114.254.164.094.131.145.284.273.405l46.166 46.161-48.731 48.728c-1.092 1.095-1.092 2.884 0 3.962.533.586 1.258.852 1.975.852z"
              />
              <path
                d="M175.162753 402.851c.717 0 1.433-.275 1.982-.822l50.718-50.715c1.083-1.084 1.083-2.878 0-3.962l-46.712-46.718 48.771-48.769c1.078-1.084 1.078-2.867 0-3.961l-46.541-46.523 49.007-49.002c1.088-1.095 1.088-2.871 0-3.962l-46.715-46.714 48.769-48.767c1.093-1.091 1.093-2.87 0-3.961l-48.153-48.143c-1.09-1.094-2.875-1.094-3.961 0-1.091 1.091-1.091 2.867 0 3.961l46.165 46.165-48.731 48.737c-1.092 1.094-1.092 2.87 0 3.961.074.074.161.101.246.164.096.134.146.29.274.408l46.171 46.173-48.735 48.736c-.689.69-.892 1.643-.713 2.534-.018.738.241 1.494.806 2.06l46.184 46.178-48.766 48.721c-1.085 1.084-1.085 2.878 0 3.962.08.076.17.115.248.153.101.131.152.295.28.405l46.164 46.174-48.734 48.727c-1.095 1.094-1.095 2.872 0 3.961.533.573 1.25.839 1.976.839z"
              />
              <path
                d="M230.789753 402.851c.729 0 1.441-.275 1.983-.822l50.726-50.715c1.093-1.084 1.093-2.878 0-3.962l-46.72-46.718 48.765-48.769c1.094-1.084 1.094-2.867 0-3.961l-46.532-46.523 49.007-49.002c1.07-1.095 1.07-2.871 0-3.962l-46.732-46.72 48.769-48.766c1.087-1.092 1.087-2.871 0-3.962l-48.158-48.148c-1.094-1.095-2.883-1.095-3.961 0-1.093 1.09-1.093 2.867 0 3.961l46.155 46.165-48.728 48.736c-1.094 1.094-1.094 2.87 0 3.961.079.08.159.107.263.17.109.134.139.285.265.402l46.173 46.172-48.746 48.736c-.69.695-.876 1.653-.71 2.545-.013.738.249 1.482.818 2.041l46.173 46.183-48.742 48.723c-1.083 1.096-1.083 2.879 0 3.963.075.087.164.114.249.164.102.131.134.284.274.405l46.173 46.161-48.731 48.728c-1.097 1.095-1.097 2.884 0 3.962.533.586 1.246.852 1.967.852z"
              />
            </g>
          </svg>